<svg width="140" height="126" viewBox="0 0 140 126" fill="none" xmlns="http://www.w3.org/2000/svg">
    <g clip-path="url(#clip0_11001_79)">
        <path fill-rule="evenodd" clip-rule="evenodd"
            d="M66.9608 6.56348H67.9083C93.9433 6.56348 115.049 25.4374 115.049 48.7196V50.4143C115.049 73.6964 93.9433 92.5704 67.9083 92.5704H66.9608C40.9258 92.5704 19.8203 73.6964 19.8203 50.4143V48.7196C19.8203 25.4374 40.9258 6.56348 66.9608 6.56348Z"
            fill="#0084C2" />
        <path fill-rule="evenodd" clip-rule="evenodd"
            d="M99.0478 17.0698L49.5454 54.2154L46.6523 51.1321L95.4587 14.5088C96.7019 15.3108 97.8997 16.1657 99.0478 17.0698Z"
            fill="#006AAD" />
        <path fill-rule="evenodd" clip-rule="evenodd"
            d="M35.6914 55.7351L67.4163 36.0088L98.7033 55.7351V117.567H35.6914V55.7351Z" fill="#C6775C" />
        <path d="M45.4041 73.5048C45.8438 73.5048 58.4188 74.9148 64.355 79.4363" stroke="#C6775C"
            stroke-width="7.56" />
        <path fill-rule="evenodd" clip-rule="evenodd"
            d="M45.5225 79.8604H88.6359C102.831 79.8604 114.338 90.1509 114.338 102.845C114.338 115.539 102.831 125.83 88.6359 125.83H45.5225C31.3276 125.83 19.8203 115.539 19.8203 102.845C19.8203 90.1509 31.3276 79.8604 45.5225 79.8604Z"
            fill="#3D3D3D" />
        <path
            d="M47.2213 83.6971C45.1033 84.8605 43.7085 86.6851 43.1682 88.6962C42.6287 90.7042 42.9416 92.8971 44.2335 94.7991C48.1982 100.637 54.8244 103.728 62.8156 104.105C65.3004 104.222 67.6032 103.423 69.3171 102.035C71.0252 100.652 72.148 98.6833 72.2779 96.4557C72.4069 94.2415 71.5315 92.1896 69.9941 90.654C68.4735 89.1352 66.3019 88.1183 63.7596 87.9622C61.8146 87.8705 60.3929 87.4777 59.5991 86.3728C58.3029 84.4712 56.2724 83.2215 54.0375 82.7358C51.7951 82.2486 49.3458 82.5301 47.2213 83.6971Z"
            fill="white" stroke="#3D3D3D" stroke-width="8.28" />
        <path
            d="M67.197 85.3675C71.2527 85.3675 74.5405 82.4273 74.5405 78.8004C74.5405 75.1736 71.2527 72.2334 67.197 72.2334C63.1413 72.2334 59.8535 75.1736 59.8535 78.8004C59.8535 82.4273 63.1413 85.3675 67.197 85.3675Z"
            fill="#C6775C" />
        <path fill-rule="evenodd" clip-rule="evenodd"
            d="M53.4934 51.0498C59.662 51.0498 64.6626 55.5217 64.6626 61.038V67.1136C64.6626 72.6299 59.662 77.1018 53.4934 77.1018C47.3248 77.1018 42.3242 72.6299 42.3242 67.1136V61.038C42.3242 55.5217 47.3248 51.0498 53.4934 51.0498Z"
            fill="white" />
        <path fill-rule="evenodd" clip-rule="evenodd"
            d="M56.5769 56.9814C59.3462 56.9814 61.5913 58.9891 61.5913 61.4656V67.0978C61.5913 69.5744 59.3462 71.582 56.5769 71.582C53.8075 71.582 51.5625 69.5744 51.5625 67.0978V61.4656C51.5625 58.9891 53.8075 56.9814 56.5769 56.9814Z"
            fill="#3D3D3D" />
        <path fill-rule="evenodd" clip-rule="evenodd"
            d="M80.9714 51.0498C74.8029 51.0498 69.8022 55.5217 69.8022 61.038V67.1136C69.8022 72.6299 74.8029 77.1018 80.9714 77.1018C87.14 77.1018 92.1406 72.6299 92.1406 67.1136V61.038C92.1406 55.5217 87.14 51.0498 80.9714 51.0498Z"
            fill="white" />
        <path
            d="M78.5989 56.9814C75.8295 56.9814 73.5845 58.9891 73.5845 61.4656V67.0978C73.5845 69.5744 75.8295 71.582 78.5989 71.582C81.3683 71.582 83.6133 69.5744 83.6133 67.0978V61.4656C83.6133 58.9891 81.3683 56.9814 78.5989 56.9814Z"
            fill="#3D3D3D" />
        <path fill-rule="evenodd" clip-rule="evenodd"
            d="M73.5141 54.6514C75.7382 54.6514 77.5412 56.2637 77.5412 58.2526C77.5412 60.2416 75.7382 61.8539 73.5141 61.8539C72.6873 61.8539 71.9187 61.6311 71.2793 61.249C70.5589 60.8184 71.3038 58.6192 73.5141 54.6514Z"
            fill="white" />
        <path fill-rule="evenodd" clip-rule="evenodd"
            d="M52.0368 61.4299C49.8128 61.4299 48.0098 59.8176 48.0098 57.8287C48.0098 55.8397 49.8128 54.2274 52.0368 54.2274C54.2609 54.2274 56.0639 55.8397 56.0639 57.8287C56.0639 59.8176 54.2609 61.4299 52.0368 61.4299Z"
            fill="white" />
    </g>
    <defs>
        <clipPath id="clip0_11001_79">
            <rect width="139.5" height="124.75" fill="white" transform="translate(0 0.5)" />
        </clipPath>
    </defs>
</svg>